<svg height="512" viewBox="0 0 64 64" width="512" xmlns="http://www.w3.org/2000/svg"><g id="Mail-3" data-name="Mail"><path d="m43 28a1 1 0 0 0 .707-.293l11.314-11.313-1.415-1.415-10.606 10.607-4.95-4.95-1.414 1.414 5.657 5.657a1 1 0 0 0 .707.293z"/><path d="m62 21a16.989 16.989 0 0 0 -33.949-1h-21.051a5.006 5.006 0 0 0 -5 5v30a5.006 5.006 0 0 0 5 5h46a5.006 5.006 0 0 0 5-5v-23h-.062a16.914 16.914 0 0 0 4.062-11zm-17 17a16.914 16.914 0 0 0 11-4.062v17.193l-19.676-13.117 2.461-1.207a16.882 16.882 0 0 0 6.215 1.193zm0-32a15 15 0 1 1 -15 15 15.017 15.017 0 0 1 15-15zm-38 16h21.051a16.993 16.993 0 0 0 8.449 13.7l-6.486 3.179-26.014-13.546v-.333a3 3 0 0 1 3-3zm16.834 15.916-19.834 13.272v-23.6zm29.166 20.084h-46a3 3 0 0 1 -3-3v-1.406l21.856-14.625 3.682 1.918a1 1 0 0 0 .9.011l3.806-1.866 21.756 14.503v1.465a3 3 0 0 1 -3 3z"/><path d="m20 54h28v2h-28z"/><path d="m14 54h4v2h-4z"/><path d="m24 50h20v2h-20z"/><path d="m18 50h4v2h-4z"/></g></svg>